<?xml version="1.0" standalone="no"?>
<!DOCTYPE svg PUBLIC "-//W3C//DTD SVG 1.1//EN" "http://www.w3.org/Graphics/SVG/1.1/DTD/svg11.dtd" >
<svg xmlns="http://www.w3.org/2000/svg" xmlns:xlink="http://www.w3.org/1999/xlink" version="1.1">
<metadata>
Created by FontForge 20201107 at Tue Jan 31 18:06:59 1933
 By 
Font Typeface: DS-Digital. Created by Dusit Supasawat , DS-Font 1998. All Rights Reserved
</metadata>
<defs>
<font id="DS-Digital-BoldItalic" horiz-adv-x="560" >
  <font-face 
    font-family="DS-Digital"
    font-weight="700"
    font-style="italic"
    font-stretch="normal"
    units-per-em="1100"
    panose-1="0 0 0 0 0 0 0 0 0 0"
    ascent="880"
    descent="-220"
    x-height="700"
    cap-height="700"
    bbox="-12 -187 1075 900"
    underline-thickness="70"
    underline-position="-155"
    slope="-5"
    unicode-range="U+0020-2030"
  />
<missing-glyph horiz-adv-x="550" 
d="M34 0v900h482v-900h-482zM482 34v832h-414v-832h414z" />
    <glyph glyph-name=".notdef" horiz-adv-x="550" 
d="M34 0v900h482v-900h-482zM482 34v832h-414v-832h414z" />
    <glyph glyph-name=".null" horiz-adv-x="0" 
 />
    <glyph glyph-name="nonmarkingreturn" horiz-adv-x="260" 
 />
    <glyph glyph-name="space" unicode=" " horiz-adv-x="260" 
 />
    <glyph glyph-name="exclam" unicode="!" horiz-adv-x="314" 
d="M234 291l-25 -291l-95 104l14 161l71 65zM143 435l14 160l113 105l-25 -291l-43 -40zM197 -140h-104l8 93h104z" />
    <glyph glyph-name="quotedbl" unicode="&#x22;" horiz-adv-x="340" 
d="M200 561l-57 -53l-47 53l12 139h104zM342 561l-57 -53l-48 53l12 139h105z" />
    <glyph glyph-name="numbersign" unicode="#" horiz-adv-x="665" 
d="M316 300l-57 -52l-48 52l5 53l56 52l49 -52zM428 229l-57 -52h-47l-47 52l57 52h47zM238 229l-57 -52h-56l-47 52l57 52h56zM297 78l-58 -52l-47 52l7 79l56 52l49 -52zM506 300l-56 -52l-49 52l5 53l57 52l48 -52zM627 229l-57 -52h-56l-47 52l57 52h56zM487 78l-57 -52
l-48 52l7 79l57 52l48 -52zM333 496l-57 -52l-48 52l8 88l57 53l48 -53zM445 424l-56 -52h-47l-48 52l57 52h47zM255 424l-56 -52h-56l-48 52l57 52h56zM523 496l-56 -52l-49 52l8 88l58 53l47 -53zM644 424l-56 -52h-56l-48 52l57 52h56z" />
    <glyph glyph-name="dollar" unicode="$" 
d="M383 723h-104l8 84l56 52l48 -52zM311 -108l-57 -52l-47 52l7 85h104zM558 648l-57 -53h-267l-47 53l56 52h267zM512 124l-57 -52l-47 52l12 141l71 65l35 -39zM474 350l-57 -52h-222l-47 52l56 52h222zM200 435l-71 -66l-35 40l14 167l57 52l47 -52zM435 52l-57 -52
h-268l-47 52l56 52h268z" />
    <glyph glyph-name="percent" unicode="%" horiz-adv-x="769" 
d="M347 650l-58 -52h-55l-47 52l57 53h55zM327 423l-58 -53h-55l-47 53l57 52h55zM101 494l48 -49l56 49l8 84l-48 53l-56 -53zM300 494l8 84l56 53l48 -53l-8 -84l-56 -49zM663 281l-57 -52h-54l-48 52l57 53h54zM643 59l-56 -52h-54l-49 52l58 52h54zM418 130l48 -49
l57 49l7 80l-48 52l-57 -52zM617 130l7 80l57 52l47 -52l-7 -80l-56 -49zM437 481l157 235l145 38l-231 -348l-55 -13zM440 305l-247 -371l-25 142l171 258l92 25z" />
    <glyph glyph-name="ampersand" unicode="&#x26;" horiz-adv-x="598" 
d="M487 648l-57 -53h-196l-47 53l56 52h196zM537 409l-43 -40l-59 66l4 42l56 52l48 -52zM512 124l-57 -52l-47 52l12 141l71 65l35 -39zM474 350l-57 -52h-222l-47 52l56 52h222zM200 435l-71 -66l-35 40l14 167l57 52l47 -52zM435 52l-57 -52h-196l-47 52l56 52h196z
M173 124l-57 -52l-47 52l14 167l43 39l59 -65zM560 298l-47 52l56 52l48 -52z" />
    <glyph glyph-name="quotesingle" unicode="'" horiz-adv-x="198" 
d="M200 561l-57 -53l-47 53l12 139h104z" />
    <glyph glyph-name="parenleft" unicode="(" horiz-adv-x="345" 
d="M189 435l-71 -66l-35 40l14 167l57 52l47 -52zM58 124l47 -52l57 52l12 141l-59 65l-43 -39zM223 595l-48 53l57 52h151l-114 -105h-46zM171 0l-48 52l57 52h46l96 -104h-151z" />
    <glyph glyph-name="parenright" unicode=")" horiz-adv-x="345" 
d="M284 648l-57 -53h-47l-96 105h152zM335 409l-43 -40l-60 66l12 141l58 52l47 -52zM310 124l-57 -52l-48 52l12 141l72 65l35 -39zM232 52l-57 -52h-152l114 104h47z" />
    <glyph glyph-name="asterisk" unicode="*" horiz-adv-x="535" 
d="M110 501l-13 71l73 19l65 -38l49 -93h-104zM442 299l74 19l-14 71l-68 46h-105l48 -94zM341 242l-57 -52l-48 52l7 80l61 97l45 -93zM370 566l-62 -95l-43 95l7 82l56 52l49 -52zM144 299l-69 19l25 71l78 41h104l-66 -94zM437 463h-105l64 93l72 35l70 -19l-26 -71z" />
    <glyph glyph-name="plus" unicode="+" horiz-adv-x="517" 
d="M348 422l-57 -53l-48 53l8 88l57 52l48 -52zM501 350l-57 -52h-88l-47 52l56 52h88zM270 350l-57 -52h-88l-47 52l56 52h88zM328 190l-57 -52l-48 52l7 88l58 52l47 -52z" />
    <glyph glyph-name="comma" unicode="," horiz-adv-x="198" 
d="M145 -64l-56 -52l-48 52l13 139h104z" />
    <glyph glyph-name="hyphen" unicode="-" horiz-adv-x="517" 
d="M501 350l-57 -52h-319l-47 52l56 52h319z" />
    <glyph glyph-name="period" unicode="." horiz-adv-x="198" 
d="M47 0l9 104h104l-9 -104h-104z" />
    <glyph glyph-name="slash" unicode="/" horiz-adv-x="539" 
d="M286 296l-227 -338l-26 143l152 225l92 23zM282 473l152 227l147 37l-227 -339l-54 -14z" />
    <glyph glyph-name="zero" unicode="0" 
d="M543 700l-113 -105h-196l-95 105h404zM482 0h-404l113 104h196zM185 265l-12 -141l-113 -104l23 271l43 39zM94 409l23 271l95 -104l-12 -141l-71 -66zM526 291l-23 -271l-95 104l12 141l71 65zM435 435l12 141l113 104l-23 -271l-43 -40z" />
    <glyph glyph-name="one" unicode="1" horiz-adv-x="314" 
d="M234 291l-23 -271l-95 104l12 141l71 65zM143 435l12 141l113 104l-23 -271l-43 -40z" />
    <glyph glyph-name="two" unicode="2" 
d="M543 700l-113 -105h-196l-95 105h404zM482 0h-404l113 104h196zM185 265l-12 -141l-113 -104l23 271l43 39zM435 435l12 141l113 104l-23 -271l-43 -40zM426 402l48 -52l-57 -52h-222l-47 52l56 52h222z" />
    <glyph glyph-name="three" unicode="3" 
d="M543 700l-113 -105h-196l-95 105h404zM482 0h-404l113 104h196zM526 291l-23 -271l-95 104l12 141l71 65zM435 435l12 141l113 104l-23 -271l-43 -40zM426 402l48 -52l-57 -52h-222l-47 52l56 52h222z" />
    <glyph glyph-name="four" unicode="4" 
d="M94 409l23 271l95 -104l-12 -141l-71 -66zM526 291l-23 -271l-95 104l12 141l71 65zM435 435l12 141l113 104l-23 -271l-43 -40zM426 402l48 -52l-57 -52h-222l-47 52l56 52h222z" />
    <glyph glyph-name="five" unicode="5" 
d="M543 700l-113 -105h-196l-95 105h404zM482 0h-404l113 104h196zM94 409l23 271l95 -104l-12 -141l-71 -66zM526 291l-23 -271l-95 104l12 141l71 65zM426 402l48 -52l-57 -52h-222l-47 52l56 52h222z" />
    <glyph glyph-name="six" unicode="6" 
d="M543 700l-113 -105h-196l-95 105h404zM482 0h-404l113 104h196zM185 265l-12 -141l-113 -104l23 271l43 39zM94 409l23 271l95 -104l-12 -141l-71 -66zM526 291l-23 -271l-95 104l12 141l71 65zM426 402l48 -52l-57 -52h-222l-47 52l56 52h222z" />
    <glyph glyph-name="seven" unicode="7" 
d="M543 700l-113 -105h-196l-95 105h404zM526 291l-23 -271l-95 104l12 141l71 65zM435 435l12 141l113 104l-23 -271l-43 -40z" />
    <glyph glyph-name="eight" unicode="8" 
d="M543 700l-113 -105h-196l-95 105h404zM482 0h-404l113 104h196zM185 265l-12 -141l-113 -104l23 271l43 39zM94 409l23 271l95 -104l-12 -141l-71 -66zM526 291l-23 -271l-95 104l12 141l71 65zM435 435l12 141l113 104l-23 -271l-43 -40zM426 402l48 -52l-57 -52h-222
l-47 52l56 52h222z" />
    <glyph glyph-name="nine" unicode="9" 
d="M543 700l-113 -105h-196l-95 105h404zM482 0h-404l113 104h196zM94 409l23 271l95 -104l-12 -141l-71 -66zM526 291l-23 -271l-95 104l12 141l71 65zM435 435l12 141l113 104l-23 -271l-43 -40zM426 402l48 -52l-57 -52h-222l-47 52l56 52h222z" />
    <glyph glyph-name="colon" unicode=":" horiz-adv-x="244" 
d="M70 0l9 104h105l-9 -104h-105zM112 479l9 104h105l-9 -104h-105z" />
    <glyph glyph-name="semicolon" unicode=";" horiz-adv-x="244" 
d="M112 479l9 104h105l-9 -104h-105zM169 -64l-57 -52l-48 52l13 139h105z" />
    <glyph glyph-name="less" unicode="&#x3c;" horiz-adv-x="392" 
d="M390 510l-164 -147h-147l243 221h74zM355 116h-74l-205 219h147l139 -146z" />
    <glyph glyph-name="equal" unicode="=" horiz-adv-x="517" 
d="M508 439l-56 -52h-319l-48 52l57 53h319zM493 261l-57 -53h-319l-47 53l56 52h319z" />
    <glyph glyph-name="greater" unicode="&#x3e;" horiz-adv-x="392" 
d="M377 363h-148l-137 147l6 74h74zM374 335l-243 -219h-74l7 73l162 146h148z" />
    <glyph glyph-name="question" unicode="?" 
d="M537 409l-43 -40l-59 66l12 141l57 52l47 -52zM487 648l-57 -53h-216l-95 105h320zM171 104l-113 -104l25 291l43 39l59 -65zM426 402l48 -52l-57 -52h-222l-47 52l56 52h222zM159 -39h-104l-10 -104h104z" />
    <glyph glyph-name="at" unicode="@" horiz-adv-x="677" 
d="M664 523l-43 -40l-60 66l2 27l114 104zM659 700l-113 -105h-312l-47 53l56 52h416zM600 464l-57 -52h-174l-47 52l56 52h174zM634 187l-96 104l8 88l72 65l35 -39zM200 435l-71 -66l-35 40l14 167l57 52l47 -52zM613 167h-252l-48 52l57 53h148zM351 291l-56 -52l-49 52
l10 114l44 39l59 -65zM83 291l43 39l59 -65l-12 -141l-57 -52l-47 52zM182 0l-47 52l56 52h402l49 -52l-58 -52h-402z" />
    <glyph glyph-name="A" unicode="A" 
d="M543 700l-113 -105h-196l-95 105h404zM185 265l-14 -161l-113 -104l25 291l43 39zM94 409l23 271l95 -104l-12 -141l-71 -66zM526 291l-25 -291l-95 104l14 161l71 65zM435 435l12 141l113 104l-23 -271l-43 -40zM426 402l48 -52l-57 -52h-222l-47 52l56 52h222z" />
    <glyph glyph-name="B" unicode="B" 
d="M185 265l-12 -141l-113 -104l23 271l43 39zM94 409l23 271l95 -104l-12 -141l-71 -66zM426 402l48 -52l-57 -52h-222l-47 52l56 52h222zM78 0l113 104h196l48 -52l-57 -52h-300zM537 409l-43 -40l-59 66l12 141l57 52l47 -52zM487 648l-57 -53h-196l-95 105h300zM512 124
l-57 -52l-47 52l12 141l71 65l35 -39z" />
    <glyph glyph-name="C" unicode="C" 
d="M182 0l-47 52l56 52h215l95 -104h-319zM562 700l-113 -105h-215l-47 53l56 52h319zM200 435l-71 -66l-35 40l14 167l57 52l47 -52zM69 124l47 -52l57 52l12 141l-59 65l-43 -39z" />
    <glyph glyph-name="D" unicode="D" 
d="M185 265l-12 -141l-113 -104l23 271l43 39zM94 409l23 271l95 -104l-12 -141l-71 -66zM78 0l113 104h196l48 -52l-57 -52h-300zM537 409l-43 -40l-59 66l12 141l57 52l47 -52zM487 648l-57 -53h-196l-95 105h300zM512 124l-57 -52l-47 52l12 141l71 65l35 -39z" />
    <glyph glyph-name="E" unicode="E" 
d="M562 700l-113 -105h-215l-95 105h423zM501 0h-423l113 104h215zM185 265l-12 -141l-113 -104l23 271l43 39zM94 409l23 271l95 -104l-12 -141l-71 -66zM426 402l48 -52l-57 -52h-222l-47 52l56 52h222z" />
    <glyph glyph-name="F" unicode="F" 
d="M562 700l-113 -105h-215l-95 105h423zM185 265l-12 -141l-113 -104l23 271l43 39zM94 409l23 271l95 -104l-12 -141l-71 -66zM426 402l48 -52l-57 -52h-222l-47 52l56 52h222z" />
    <glyph glyph-name="G" unicode="G" 
d="M562 700l-113 -105h-215l-47 53l56 52h319zM475 364l-57 -52h-118l-47 52l56 53h118zM201 449l-70 -65l-36 39l13 153l57 52l47 -52zM173 124l-57 -52l-47 52l16 182l42 39l59 -65zM378 0l57 52l-48 52h-196l-56 -52l47 -52h196zM512 124l-57 -52l-47 52l13 156l71 65
l36 -39z" />
    <glyph glyph-name="H" unicode="H" 
d="M185 265l-14 -161l-113 -104l25 291l43 39zM94 409l25 291l95 -105l-14 -160l-71 -66zM526 291l-25 -291l-95 104l14 161l71 65zM435 435l14 160l113 105l-25 -291l-43 -40zM426 402l48 -52l-57 -52h-222l-47 52l56 52h222z" />
    <glyph glyph-name="I" unicode="I" horiz-adv-x="314" 
d="M234 291l-25 -291l-95 104l14 161l71 65zM143 435l14 160l113 105l-25 -291l-43 -40z" />
    <glyph glyph-name="J" unicode="J" 
d="M512 124l-57 -52l-47 52l12 141l71 65l35 -39zM69 124l47 -52l57 52l8 94l-59 66l-43 -40zM182 0l-47 52l56 52h196l48 -52l-57 -52h-196zM435 435l14 160l113 105l-25 -291l-43 -40z" />
    <glyph glyph-name="K" unicode="K" 
d="M185 265l-14 -161l-113 -104l25 291l43 39zM94 409l25 291l95 -105l-14 -160l-71 -66zM526 291l-25 -291l-95 104l14 161l71 65zM426 402l48 -52l-57 -52h-222l-47 52l56 52h222zM445 700h74l-6 -75l-213 -195h-74l6 75z" />
    <glyph glyph-name="L" unicode="L" 
d="M501 0h-423l113 104h215zM185 265l-12 -141l-113 -104l23 271l43 39zM94 409l25 291l95 -105l-14 -160l-71 -66z" />
    <glyph glyph-name="M" unicode="M" 
d="M543 700l-113 -105h-196l-95 105h404zM185 265l-14 -161l-113 -104l25 291l43 39zM94 409l23 271l95 -104l-12 -141l-71 -66zM526 291l-25 -291l-95 104l14 161l71 65zM435 435l12 141l113 104l-23 -271l-43 -40zM276 519l58 52l47 -52l-18 -205l-56 -53l-49 53z" />
    <glyph glyph-name="N" unicode="N" 
d="M185 265l-14 -161l-113 -104l25 291l43 39zM94 409l25 291l95 -105l-14 -160l-71 -66zM526 291l-25 -291l-95 104l14 161l71 65zM435 435l14 160l113 105l-25 -291l-43 -40zM147 700h152l123 -143l-7 -75h-74z" />
    <glyph glyph-name="O" unicode="O" 
d="M537 409l-43 -40l-59 66l12 141l57 52l47 -52zM487 648l-57 -53h-196l-47 53l56 52h196zM512 124l-57 -52l-47 52l12 141l71 65l35 -39zM200 435l-71 -66l-35 40l14 167l57 52l47 -52zM69 124l47 -52l57 52l12 141l-59 65l-43 -39zM182 0l-47 52l56 52h196l48 -52
l-57 -52h-196z" />
    <glyph glyph-name="P" unicode="P" 
d="M185 265l-14 -161l-113 -104l25 291l43 39zM94 409l23 271l95 -104l-12 -141l-71 -66zM426 402l48 -52l-57 -52h-222l-47 52l56 52h222zM537 409l-43 -40l-59 66l12 141l57 52l47 -52zM487 648l-57 -53h-196l-95 105h300z" />
    <glyph glyph-name="Q" unicode="Q" 
d="M538 423l-42 -39l-60 65l11 127l57 52l47 -52zM487 648l-57 -53h-196l-47 53l56 52h196zM520 218l-56 -52l-48 52l5 61l71 65l36 -39zM201 449l-70 -65l-36 39l13 153l57 52l47 -52zM69 124l47 -52l57 52l13 155l-59 65l-42 -39zM182 0l-47 52l56 52h102l48 -52l-57 -52
h-102zM314 124l6 75h75l113 -124l-7 -75h-74z" />
    <glyph glyph-name="R" unicode="R" 
d="M226 200l7 74h75l183 -199l-7 -75h-75zM185 265l-14 -161l-113 -104l25 291l43 39zM94 409l23 271l95 -104l-12 -141l-71 -66zM426 402l48 -52l-57 -52h-222l-47 52l56 52h222zM537 409l-43 -40l-59 66l12 141l57 52l47 -52zM487 648l-57 -53h-196l-95 105h300z" />
    <glyph glyph-name="S" unicode="S" 
d="M558 648l-57 -53h-267l-47 53l56 52h267zM512 124l-57 -52l-47 52l12 141l71 65l35 -39zM200 435l-71 -66l-35 40l14 167l57 52l47 -52zM110 0l-47 52l56 52h268l48 -52l-57 -52h-268zM426 402l48 -52l-57 -52h-222l-47 52l56 52h222z" />
    <glyph glyph-name="T" unicode="T" 
d="M336 48l-56 -52l-48 52l19 217l71 65l35 -39zM368 409l-43 -40l-59 66l7 80l57 52l47 -52zM582 648l-58 -53h-385l-47 53l56 52h385z" />
    <glyph glyph-name="U" unicode="U" 
d="M512 124l-57 -52l-47 52l12 141l71 65l35 -39zM69 124l47 -52l57 52l12 141l-59 65l-43 -39zM182 0l-47 52l56 52h196l48 -52l-57 -52h-196zM537 409l-43 -40l-59 66l14 160l113 105zM119 700l95 -105l-14 -160l-71 -66l-35 40z" />
    <glyph glyph-name="V" unicode="V" horiz-adv-x="537" 
d="M538 419l-43 -39l-59 66l13 149l113 105zM201 446l-71 -66l-35 39l24 281l95 -105zM492 341l-15 -92l-204 -199h-74l7 74l202 199zM166 50l-56 -53l-48 53l22 252l43 39l59 -66z" />
    <glyph glyph-name="W" unicode="W" 
d="M537 409l-43 -40l-59 66l14 160l113 105zM200 435l-71 -66l-35 40l25 291l95 -105zM503 20l-95 104l12 141l71 65l35 -39zM352 180l-57 -52l-48 52l18 206l57 53l48 -53zM482 0h-404l113 104h196zM173 124l-113 -104l23 271l43 39l59 -65z" />
    <glyph glyph-name="X" unicode="X" horiz-adv-x="537" 
d="M332 369l10 115l160 216h60l-9 -102l-168 -229h-53zM240 369l-130 229l9 102h61l123 -216l-10 -115h-53zM290 330l-10 -115l-160 -215h-62l9 102l170 228h53zM382 330l128 -228l-9 -102h-60l-122 216l10 114h53z" />
    <glyph glyph-name="Y" unicode="Y" 
d="M537 409l-43 -40l-59 66l14 160l113 105zM94 409l35 -40l71 66l14 160l-95 105zM149 0l-47 52l56 52h229l48 -52l-57 -52h-229zM512 124l-57 -52l-47 52l12 141l71 65l35 -39zM426 402l48 -52l-57 -52h-222l-47 52l56 52h222z" />
    <glyph glyph-name="Z" unicode="Z" 
d="M558 648l-57 -53h-287l-95 105h391zM492 494l-94 -124l-94 -10l1 55l120 156h74zM295 254l-96 -126h-78l6 72l108 140l56 5zM489 0h-379l-47 52l56 52h275z" />
    <glyph glyph-name="bracketleft" unicode="[" horiz-adv-x="345" 
d="M383 700l-114 -105h-46l-96 105h256zM322 0h-256l114 104h46zM174 265l-12 -141l-113 -104l23 271l43 39zM83 409l23 271l95 -104l-12 -141l-71 -66z" />
    <glyph glyph-name="backslash" unicode="\" horiz-adv-x="540" 
d="M340 473l-32 -89l-52 14l-169 339l140 -37zM524 101l-51 -143l-167 338l19 53l88 -23z" />
    <glyph glyph-name="bracketright" unicode="]" horiz-adv-x="345" 
d="M340 700l-113 -105h-47l-96 105h256zM335 409l-43 -40l-60 66l12 141l114 104zM301 20l-96 104l12 141l72 65l35 -39zM279 0h-256l114 104h47z" />
    <glyph glyph-name="asciicircum" unicode="^" horiz-adv-x="510" 
d="M427 431l-111 121l13 148l178 -195l-6 -74h-74zM85 431l6 74l211 195l-13 -148l-131 -121h-73z" />
    <glyph glyph-name="underscore" unicode="_" horiz-adv-x="518" 
d="M506 -135l-56 -52h-414l-48 52l57 52h414z" />
    <glyph glyph-name="grave" unicode="`" horiz-adv-x="266" 
d="M270 581l-25 -71l-70 19l-69 141l93 53z" />
    <glyph glyph-name="a" unicode="a" 
d="M543 700l-113 -105h-196l-95 105h404zM185 265l-14 -161l-113 -104l25 291l43 39zM94 409l23 271l95 -104l-12 -141l-71 -66zM526 291l-25 -291l-95 104l14 161l71 65zM435 435l12 141l113 104l-23 -271l-43 -40zM426 402l48 -52l-57 -52h-222l-47 52l56 52h222z" />
    <glyph glyph-name="b" unicode="b" 
d="M185 265l-12 -141l-113 -104l23 271l43 39zM94 409l23 271l95 -104l-12 -141l-71 -66zM426 402l48 -52l-57 -52h-222l-47 52l56 52h222zM78 0l113 104h196l48 -52l-57 -52h-300zM537 409l-43 -40l-59 66l12 141l57 52l47 -52zM487 648l-57 -53h-196l-95 105h300zM512 124
l-57 -52l-47 52l12 141l71 65l35 -39z" />
    <glyph glyph-name="c" unicode="c" 
d="M182 0l-47 52l56 52h215l95 -104h-319zM562 700l-113 -105h-215l-47 53l56 52h319zM200 435l-71 -66l-35 40l14 167l57 52l47 -52zM69 124l47 -52l57 52l12 141l-59 65l-43 -39z" />
    <glyph glyph-name="d" unicode="d" 
d="M185 265l-12 -141l-113 -104l23 271l43 39zM94 409l23 271l95 -104l-12 -141l-71 -66zM78 0l113 104h196l48 -52l-57 -52h-300zM537 409l-43 -40l-59 66l12 141l57 52l47 -52zM487 648l-57 -53h-196l-95 105h300zM512 124l-57 -52l-47 52l12 141l71 65l35 -39z" />
    <glyph glyph-name="e" unicode="e" 
d="M562 700l-113 -105h-215l-95 105h423zM501 0h-423l113 104h215zM185 265l-12 -141l-113 -104l23 271l43 39zM94 409l23 271l95 -104l-12 -141l-71 -66zM426 402l48 -52l-57 -52h-222l-47 52l56 52h222z" />
    <glyph glyph-name="f" unicode="f" 
d="M562 700l-113 -105h-215l-95 105h423zM185 265l-12 -141l-113 -104l23 271l43 39zM94 409l23 271l95 -104l-12 -141l-71 -66zM426 402l48 -52l-57 -52h-222l-47 52l56 52h222z" />
    <glyph glyph-name="g" unicode="g" 
d="M562 700l-113 -105h-215l-47 53l56 52h319zM475 364l-57 -52h-118l-47 52l56 53h118zM201 449l-70 -65l-36 39l13 153l57 52l47 -52zM173 124l-57 -52l-47 52l16 182l42 39l59 -65zM378 0l57 52l-48 52h-196l-56 -52l47 -52h196zM512 124l-57 -52l-47 52l13 156l71 65
l36 -39z" />
    <glyph glyph-name="h" unicode="h" 
d="M185 265l-14 -161l-113 -104l25 291l43 39zM94 409l25 291l95 -105l-14 -160l-71 -66zM526 291l-25 -291l-95 104l14 161l71 65zM435 435l14 160l113 105l-25 -291l-43 -40zM426 402l48 -52l-57 -52h-222l-47 52l56 52h222z" />
    <glyph glyph-name="i" unicode="i" horiz-adv-x="314" 
d="M234 291l-25 -291l-95 104l14 161l71 65zM143 435l14 160l113 105l-25 -291l-43 -40z" />
    <glyph glyph-name="j" unicode="j" 
d="M512 124l-57 -52l-47 52l12 141l71 65l35 -39zM69 124l47 -52l57 52l8 94l-59 66l-43 -40zM182 0l-47 52l56 52h196l48 -52l-57 -52h-196zM435 435l14 160l113 105l-25 -291l-43 -40z" />
    <glyph glyph-name="k" unicode="k" 
d="M185 265l-14 -161l-113 -104l25 291l43 39zM94 409l25 291l95 -105l-14 -160l-71 -66zM526 291l-25 -291l-95 104l14 161l71 65zM426 402l48 -52l-57 -52h-222l-47 52l56 52h222zM445 700h74l-6 -75l-213 -195h-74l6 75z" />
    <glyph glyph-name="l" unicode="l" 
d="M501 0h-423l113 104h215zM185 265l-12 -141l-113 -104l23 271l43 39zM94 409l25 291l95 -105l-14 -160l-71 -66z" />
    <glyph glyph-name="m" unicode="m" 
d="M543 700l-113 -105h-196l-95 105h404zM185 265l-14 -161l-113 -104l25 291l43 39zM94 409l23 271l95 -104l-12 -141l-71 -66zM526 291l-25 -291l-95 104l14 161l71 65zM435 435l12 141l113 104l-23 -271l-43 -40zM276 519l58 52l47 -52l-18 -205l-56 -53l-49 53z" />
    <glyph glyph-name="n" unicode="n" 
d="M185 265l-14 -161l-113 -104l25 291l43 39zM94 409l25 291l95 -105l-14 -160l-71 -66zM526 291l-25 -291l-95 104l14 161l71 65zM435 435l14 160l113 105l-25 -291l-43 -40zM147 700h152l123 -143l-7 -75h-74z" />
    <glyph glyph-name="o" unicode="o" 
d="M537 409l-43 -40l-59 66l12 141l57 52l47 -52zM487 648l-57 -53h-196l-47 53l56 52h196zM512 124l-57 -52l-47 52l12 141l71 65l35 -39zM200 435l-71 -66l-35 40l14 167l57 52l47 -52zM69 124l47 -52l57 52l12 141l-59 65l-43 -39zM182 0l-47 52l56 52h196l48 -52
l-57 -52h-196z" />
    <glyph glyph-name="p" unicode="p" 
d="M185 265l-14 -161l-113 -104l25 291l43 39zM94 409l23 271l95 -104l-12 -141l-71 -66zM426 402l48 -52l-57 -52h-222l-47 52l56 52h222zM537 409l-43 -40l-59 66l12 141l57 52l47 -52zM487 648l-57 -53h-196l-95 105h300z" />
    <glyph glyph-name="q" unicode="q" 
d="M538 423l-42 -39l-60 65l11 127l57 52l47 -52zM487 648l-57 -53h-196l-47 53l56 52h196zM520 218l-56 -52l-48 52l5 61l71 65l36 -39zM201 449l-70 -65l-36 39l13 153l57 52l47 -52zM69 124l47 -52l57 52l13 155l-59 65l-42 -39zM182 0l-47 52l56 52h102l48 -52l-57 -52
h-102zM314 124l6 75h75l113 -124l-7 -75h-74z" />
    <glyph glyph-name="r" unicode="r" 
d="M226 200l7 74h75l183 -199l-7 -75h-75zM185 265l-14 -161l-113 -104l25 291l43 39zM94 409l23 271l95 -104l-12 -141l-71 -66zM426 402l48 -52l-57 -52h-222l-47 52l56 52h222zM537 409l-43 -40l-59 66l12 141l57 52l47 -52zM487 648l-57 -53h-196l-95 105h300z" />
    <glyph glyph-name="s" unicode="s" 
d="M558 648l-57 -53h-267l-47 53l56 52h267zM512 124l-57 -52l-47 52l12 141l71 65l35 -39zM200 435l-71 -66l-35 40l14 167l57 52l47 -52zM110 0l-47 52l56 52h268l48 -52l-57 -52h-268zM426 402l48 -52l-57 -52h-222l-47 52l56 52h222z" />
    <glyph glyph-name="t" unicode="t" 
d="M336 48l-56 -52l-48 52l19 217l71 65l35 -39zM368 409l-43 -40l-59 66l7 80l57 52l47 -52zM582 648l-58 -53h-385l-47 53l56 52h385z" />
    <glyph glyph-name="u" unicode="u" 
d="M512 124l-57 -52l-47 52l12 141l71 65l35 -39zM69 124l47 -52l57 52l12 141l-59 65l-43 -39zM182 0l-47 52l56 52h196l48 -52l-57 -52h-196zM537 409l-43 -40l-59 66l14 160l113 105zM119 700l95 -105l-14 -160l-71 -66l-35 40z" />
    <glyph glyph-name="v" unicode="v" horiz-adv-x="537" 
d="M538 419l-43 -39l-59 66l13 149l113 105zM201 446l-71 -66l-35 39l24 281l95 -105zM492 341l-15 -92l-204 -199h-74l7 74l202 199zM166 50l-56 -53l-48 53l22 252l43 39l59 -66z" />
    <glyph glyph-name="w" unicode="w" 
d="M537 409l-43 -40l-59 66l14 160l113 105zM200 435l-71 -66l-35 40l25 291l95 -105zM503 20l-95 104l12 141l71 65l35 -39zM352 180l-57 -52l-48 52l18 206l57 53l48 -53zM482 0h-404l113 104h196zM173 124l-113 -104l23 271l43 39l59 -65z" />
    <glyph glyph-name="x" unicode="x" horiz-adv-x="537" 
d="M332 369l10 115l160 216h60l-9 -102l-168 -229h-53zM240 369l-130 229l9 102h61l123 -216l-10 -115h-53zM290 330l-10 -115l-160 -215h-62l9 102l170 228h53zM382 330l128 -228l-9 -102h-60l-122 216l10 114h53z" />
    <glyph glyph-name="y" unicode="y" 
d="M537 409l-43 -40l-59 66l14 160l113 105zM94 409l35 -40l71 66l14 160l-95 105zM149 0l-47 52l56 52h229l48 -52l-57 -52h-229zM512 124l-57 -52l-47 52l12 141l71 65l35 -39zM426 402l48 -52l-57 -52h-222l-47 52l56 52h222z" />
    <glyph glyph-name="z" unicode="z" 
d="M558 648l-57 -53h-287l-95 105h391zM492 494l-94 -124l-94 -10l1 55l120 156h74zM295 254l-96 -126h-78l6 72l108 140l56 5zM489 0h-379l-47 52l56 52h275z" />
    <glyph glyph-name="braceleft" unicode="{" horiz-adv-x="432" 
d="M470 700l-114 -105h-47l-47 53l56 52h152zM274 409l-43 -40l-59 66l12 141l57 52l47 -52zM210 350l-57 -52h-51l-48 52l57 52h51zM249 124l-57 -52l-47 52l12 141l71 65l35 -39zM409 0h-152l-47 52l56 52h47z" />
    <glyph glyph-name="bar" unicode="|" horiz-adv-x="347" 
d="M106 -187l77 887h103l-77 -887h-103z" />
    <glyph glyph-name="braceright" unicode="}" horiz-adv-x="432" 
d="M284 648l-57 -53h-47l-96 105h152zM337 435l-71 -66l-36 40l14 167l58 52l47 -52zM440 350l-58 -52h-51l-47 52l56 52h51zM310 124l-57 -52l-48 52l14 167l44 39l59 -65zM232 52l-57 -52h-152l114 104h47z" />
    <glyph glyph-name="asciitilde" unicode="~" horiz-adv-x="466" 
d="M70 260l8 95q23 23 45.5 33.5t47.5 10.5q39 0 102 -28q38 -17 71 -17q28 0 54.5 14.5t56.5 44.5l-9 -99q-17 -20 -46.5 -31.5t-65.5 -11.5q-35 0 -68 10q-8 3 -45 21q-26 13 -46 13q-21 0 -45.5 -12.5t-59.5 -42.5z" />
    <glyph glyph-name="endash" unicode="&#x2013;" horiz-adv-x="513" 
d="M78 350q7 87 74 148.5t153 61.5q83 0 138 -55t55 -136q0 -13 -1 -19q-8 -87 -74.5 -148.5t-154.5 -61.5q-81 0 -136 55t-55 135q0 13 1 20z" />
    <glyph glyph-name="emdash" unicode="&#x2014;" horiz-adv-x="532" 
d="M526 387l35 -37l-42 -37h-456l-34 37l41 37h456z" />
    <glyph glyph-name="quoteright" unicode="&#x2019;" horiz-adv-x="198" 
d="M195 508h-104l13 140l56 52l48 -52z" />
    <glyph glyph-name="quotedblleft" unicode="&#x201c;" horiz-adv-x="198" 
d="M200 561l-57 -53l-47 53l12 139h104z" />
    <glyph glyph-name="quotedblright" unicode="&#x201d;" horiz-adv-x="340" 
d="M337 508h-105l13 140l57 52l48 -52zM195 508h-104l13 140l56 52l48 -52z" />
    <glyph glyph-name="bullet" unicode="&#x2022;" horiz-adv-x="340" 
d="M200 561l-57 -53l-47 53l12 139h104zM342 561l-57 -53l-48 53l12 139h105z" />
    <glyph glyph-name="perthousand" unicode="&#x2030;" horiz-adv-x="1115" 
d="M347 650l-58 -52h-55l-47 52l57 53h55zM327 423l-58 -53h-55l-47 53l57 52h55zM101 494l48 -49l56 49l8 84l-48 53l-56 -53zM300 494l8 84l56 53l48 -53l-8 -84l-56 -49zM663 281l-57 -52h-54l-48 52l57 53h54zM643 59l-56 -52h-54l-49 52l58 52h54zM418 130l48 -49
l57 49l7 80l-48 52l-57 -52zM617 130l7 80l57 52l47 -52l-7 -80l-56 -49zM437 481l157 235l145 38l-231 -348l-55 -13zM440 305l-247 -371l-25 142l171 258l92 25zM1010 281l-57 -52h-55l-47 52l56 53h55zM990 59l-56 -52h-55l-48 52l57 52h55zM765 130l48 -49l56 49l7 80
l-47 52l-57 -52zM964 130l7 80l57 52l47 -52l-7 -80l-56 -49z" />
  </font>
</defs>
</svg>
